<svg version="1.1" xmlns="http://www.w3.org/2000/svg" xmlns:xlink="http://www.w3.org/1999/xlink" width="741" height="109"><defs><clipPath id="uUsMeUsDHXdv"><path fill="none" stroke="none" d=" M 0 0 L 741 0 L 741 109 L 0 109 L 0 0 Z"/></clipPath></defs><g transform="scale(1,1)" clip-path="url(#uUsMeUsDHXdv)"><g transform="translate(-70,-258)"><path fill="rgb(101,87,210)" stroke="none" paint-order="stroke fill markers" fill-rule="evenodd" d=" M 450 115 L 472 115 C 473.1045694996616 115 474 115.8954305003384 474 117 L 474 139 C 474 140.10456949966158 473.1045694996616 141 472 141 L 450 141 C 448.8954305003384 141 448 140.10456949966158 448 139 L 448 117 C 448 115.8954305003384 448.8954305003384 115 450 115 Z" fill-opacity="1"/><g transform="translate(448,115)"><path fill="none" stroke="rgb(255,255,255)" paint-order="fill stroke markers" d=" M 4.44 13.76 L 9.75 19.07 L 21.99 6.83" stroke-opacity="1" stroke-linecap="square" stroke-miterlimit="10" stroke-width="2.6"/><g transform="translate(-448,-115)"><text fill="rgb(0,0,0)" stroke="none" font-family="geogebra-sans-serif, sans-serif" font-size="32px" font-style="normal" font-weight="normal" text-decoration="normal" x="483" y="140" text-anchor="start" dominant-baseline="alphabetic" fill-opacity="1">Serif</text><g transform="scale(35,35)"><g transform="translate(2.319871908910857,8.430634857142858)"><path fill="rgb(0,0,0)" stroke="none" paint-order="stroke fill markers" d=" M 0.516 -0.683 L 0.372 -0.105 Q 0.366 -0.08 0.366 -0.057 Q 0.366 -0.011 0.396 -0.011 Q 0.434 -0.011 0.46 -0.091 Q 0.465 -0.108 0.47200000000000003 -0.135 Q 0.48 -0.152 0.486 -0.153 Q 0.498 -0.153 0.498 -0.14300000000000002 Q 0.498 -0.128 0.48 -0.073 Q 0.47400000000000003 -0.056 0.468 -0.044 Q 0.44 0.011 0.394 0.011 Q 0.338 0.011 0.313 -0.037 Q 0.306 -0.049 0.303 -0.064 Q 0.24 0.011 0.17300000000000001 0.011 Q 0.098 0.011 0.062 -0.057 Q 0.04 -0.097 0.04 -0.149 Q 0.04 -0.257 0.115 -0.34900000000000003 Q 0.185 -0.433 0.267 -0.441 Q 0.274 -0.442 0.281 -0.442 Q 0.342 -0.442 0.373 -0.378 L 0.433 -0.615 L 0.436 -0.635 Q 0.436 -0.646 0.422 -0.649 Q 0.41000000000000003 -0.652 0.386 -0.652 Q 0.364 -0.652 0.362 -0.664 Q 0.362 -0.681 0.376 -0.683 Q 0.47000000000000003 -0.6940000000000001 0.503 -0.6940000000000001 Q 0.516 -0.6940000000000001 0.516 -0.683 M 0.308 -0.11900000000000001 L 0.308 -0.11900000000000001 L 0.358 -0.315 Q 0.361 -0.33 0.361 -0.332 Q 0.361 -0.353 0.343 -0.383 Q 0.321 -0.42 0.28200000000000003 -0.42 Q 0.23 -0.42 0.183 -0.352 Q 0.17400000000000002 -0.339 0.166 -0.324 Q 0.137 -0.266 0.117 -0.159 Q 0.111 -0.125 0.111 -0.105 Q 0.111 -0.037 0.149 -0.017 Q 0.16 -0.011 0.17500000000000002 -0.011 Q 0.231 -0.011 0.28800000000000003 -0.082 Q 0.302 -0.098 0.307 -0.115 L 0.307 -0.116 Q 0.308 -0.11800000000000001 0.308 -0.11900000000000001 Z"/></g><g transform="translate(2.839871908910857,8.430634857142858)"><path fill="rgb(0,0,0)" stroke="none" paint-order="stroke fill markers" d=" M 0.656 -0.14200000000000002 L 0.656 -0.14200000000000002 Q 0.639 -0.067 0.551 -0.015 Q 0.489 0.022 0.436 0.022 Q 0.391 0.022 0.28500000000000003 -0.006 Q 0.195 -0.033 0.133 -0.035 Q 0.106 0.002 0.057 0.018000000000000002 Q 0.047 0.022 0.04 0.022 Q 0.031 0.022 0.031 0.016 Q 0.031 0.003 0.067 -0.03 L 0.092 -0.064 Q 0.138 -0.133 0.165 -0.24 Q 0.216 -0.44 0.265 -0.526 Q 0.28500000000000003 -0.561 0.31 -0.591 Q 0.363 -0.654 0.448 -0.687 Q 0.493 -0.705 0.533 -0.705 Q 0.604 -0.705 0.617 -0.636 L 0.617 -0.635 Q 0.619 -0.623 0.619 -0.611 Q 0.619 -0.5680000000000001 0.6 -0.551 Q 0.598 -0.55 0.593 -0.546 Q 0.553 -0.516 0.526 -0.516 Q 0.518 -0.516 0.518 -0.523 L 0.522 -0.559 L 0.522 -0.56 Q 0.522 -0.618 0.484 -0.636 Q 0.47000000000000003 -0.643 0.453 -0.643 Q 0.421 -0.643 0.406 -0.628 L 0.405 -0.627 L 0.404 -0.626 Q 0.402 -0.625 0.399 -0.621 Q 0.328 -0.549 0.262 -0.28800000000000003 Q 0.233 -0.17 0.18 -0.093 Q 0.195 -0.097 0.218 -0.097 Q 0.271 -0.097 0.38 -0.065 Q 0.46900000000000003 -0.04 0.515 -0.04 Q 0.531 -0.04 0.537 -0.046 Q 0.538 -0.048 0.541 -0.052000000000000005 L 0.556 -0.082 Q 0.5630000000000001 -0.10200000000000001 0.578 -0.114 L 0.579 -0.114 Q 0.584 -0.11800000000000001 0.592 -0.123 Q 0.624 -0.145 0.647 -0.145 Q 0.653 -0.145 0.656 -0.14200000000000002 Z"/></g><rect fill="rgb(0,0,0)" stroke="none" x="2.319871908910857" y="8.837143357142857" width="1.21" height="0.039999"/><g transform="translate(2.364371908910857,9.793093857142857)"><path fill="rgb(0,0,0)" stroke="none" paint-order="stroke fill markers" d=" M 0.516 -0.683 L 0.372 -0.105 Q 0.366 -0.08 0.366 -0.057 Q 0.366 -0.011 0.396 -0.011 Q 0.434 -0.011 0.46 -0.091 Q 0.465 -0.108 0.47200000000000003 -0.135 Q 0.48 -0.152 0.486 -0.153 Q 0.498 -0.153 0.498 -0.14300000000000002 Q 0.498 -0.128 0.48 -0.073 Q 0.47400000000000003 -0.056 0.468 -0.044 Q 0.44 0.011 0.394 0.011 Q 0.338 0.011 0.313 -0.037 Q 0.306 -0.049 0.303 -0.064 Q 0.24 0.011 0.17300000000000001 0.011 Q 0.098 0.011 0.062 -0.057 Q 0.04 -0.097 0.04 -0.149 Q 0.04 -0.257 0.115 -0.34900000000000003 Q 0.185 -0.433 0.267 -0.441 Q 0.274 -0.442 0.281 -0.442 Q 0.342 -0.442 0.373 -0.378 L 0.433 -0.615 L 0.436 -0.635 Q 0.436 -0.646 0.422 -0.649 Q 0.41000000000000003 -0.652 0.386 -0.652 Q 0.364 -0.652 0.362 -0.664 Q 0.362 -0.681 0.376 -0.683 Q 0.47000000000000003 -0.6940000000000001 0.503 -0.6940000000000001 Q 0.516 -0.6940000000000001 0.516 -0.683 M 0.308 -0.11900000000000001 L 0.308 -0.11900000000000001 L 0.358 -0.315 Q 0.361 -0.33 0.361 -0.332 Q 0.361 -0.353 0.343 -0.383 Q 0.321 -0.42 0.28200000000000003 -0.42 Q 0.23 -0.42 0.183 -0.352 Q 0.17400000000000002 -0.339 0.166 -0.324 Q 0.137 -0.266 0.117 -0.159 Q 0.111 -0.125 0.111 -0.105 Q 0.111 -0.037 0.149 -0.017 Q 0.16 -0.011 0.17500000000000002 -0.011 Q 0.231 -0.011 0.28800000000000003 -0.082 Q 0.302 -0.098 0.307 -0.115 L 0.307 -0.116 Q 0.308 -0.11800000000000001 0.308 -0.11900000000000001 Z"/></g><g transform="translate(2.884371908910857,9.793093857142857)"><path fill="rgb(0,0,0)" stroke="none" paint-order="stroke fill markers" d=" M 0.052000000000000005 0.129 L 0.169 -0.336 Q 0.17500000000000002 -0.357 0.17500000000000002 -0.379 Q 0.17500000000000002 -0.41600000000000004 0.152 -0.41600000000000004 Q 0.109 -0.41600000000000004 0.084 -0.316 Q 0.077 -0.28800000000000003 0.076 -0.28700000000000003 Q 0.07100000000000001 -0.28200000000000003 0.056 -0.28200000000000003 Q 0.032 -0.28200000000000003 0.032 -0.296 Q 0.032 -0.304 0.043000000000000003 -0.3365 Q 0.054 -0.369 0.07 -0.395 Q 0.10300000000000001 -0.452 0.157 -0.452 Q 0.234 -0.452 0.272 -0.398 Q 0.33 -0.452 0.41100000000000003 -0.452 Q 0.483 -0.452 0.5345 -0.41200000000000003 Q 0.586 -0.372 0.586 -0.28700000000000003 Q 0.586 -0.176 0.5065000000000001 -0.084 Q 0.427 0.008 0.304 0.008 Q 0.242 0.008 0.203 -0.028 L 0.16 0.146 Q 0.17300000000000001 0.147 0.203 0.147 Q 0.229 0.147 0.229 0.165 Q 0.229 0.194 0.203 0.194 Q 0.186 0.194 0.15 0.1925 Q 0.114 0.191 0.096 0.191 Q 0.081 0.191 0.0495 0.1925 Q 0.018000000000000002 0.194 0.004 0.194 Q -0.015 0.194 -0.015 0.17500000000000002 Q -0.015 0.162 -0.009000000000000001 0.1555 Q -0.003 0.149 0.003 0.148 Q 0.009000000000000001 0.147 0.02 0.147 Q 0.04 0.147 0.046 0.145 Q 0.048 0.14300000000000002 0.052000000000000005 0.129 M 0.28200000000000003 -0.35100000000000003 L 0.221 -0.1 L 0.219 -0.08600000000000001 Q 0.219 -0.07200000000000001 0.2415 -0.05 Q 0.264 -0.028 0.302 -0.028 Q 0.381 -0.028 0.423 -0.126 Q 0.437 -0.16 0.455 -0.232 Q 0.47300000000000003 -0.304 0.47300000000000003 -0.34 Q 0.47300000000000003 -0.41600000000000004 0.406 -0.41600000000000004 Q 0.372 -0.41600000000000004 0.339 -0.3975 Q 0.306 -0.379 0.28200000000000003 -0.35100000000000003 Z"/></g><g transform="translate(3.841807309885206,9.107142857142858)"><path fill="rgb(0,0,0)" stroke="none" paint-order="stroke fill markers" d=" M 0.687 -0.327 L 0.09 -0.327 Q 0.058 -0.327 0.056 -0.34700000000000003 Q 0.056 -0.367 0.089 -0.367 L 0.6880000000000001 -0.367 Q 0.72 -0.367 0.721 -0.34700000000000003 Q 0.721 -0.327 0.687 -0.327 M 0.6880000000000001 -0.133 L 0.089 -0.133 Q 0.057 -0.133 0.056 -0.153 Q 0.056 -0.17300000000000001 0.09 -0.17300000000000001 L 0.687 -0.17300000000000001 Q 0.719 -0.17300000000000001 0.721 -0.153 Q 0.721 -0.133 0.6880000000000001 -0.133 Z"/></g><g transform="translate(4.897585087662984,9.107142857142858)"><path fill="rgb(0,0,0)" stroke="none" paint-order="stroke fill markers" d=" M 0.5720000000000001 -0.7030000000000001 L 0.5720000000000001 -0.7030000000000001 L 0.708 -0.459 Q 0.714 -0.448 0.714 -0.445 Q 0.714 -0.438 0.706 -0.434 Q 0.586 -0.364 0.541 -0.352 Q 0.554 -0.153 0.554 -0.127 L 0.55 -0.094 L 0.55 -0.093 Q 0.55 -0.041 0.596 -0.011 L 0.64 -0.046 Q 0.676 -0.077 0.683 -0.077 Q 0.6930000000000001 -0.077 0.7000000000000001 -0.068 Q 0.7020000000000001 -0.065 0.7020000000000001 -0.062 Q 0.7020000000000001 -0.059000000000000004 0.685 -0.044 L 0.617 0.008 Q 0.598 0.022 0.583 0.022 Q 0.519 0.022 0.486 -0.03 Q 0.467 -0.059000000000000004 0.467 -0.093 L 0.47100000000000003 -0.126 L 0.47100000000000003 -0.127 L 0.461 -0.305 Q 0.458 -0.343 0.457 -0.34400000000000003 Q 0.455 -0.34500000000000003 0.44 -0.34500000000000003 L 0.343 -0.34500000000000003 L 0.343 -0.246 Q 0.343 -0.125 0.291 -0.043000000000000003 Q 0.25 0.022 0.194 0.022 Q 0.117 0.022 0.075 -0.085 Q 0.06 -0.079 0.058 -0.078 Q 0.046 -0.08 0.046 -0.09 Q 0.046 -0.1 0.067 -0.105 Q 0.063 -0.117 0.063 -0.11800000000000001 Q 0.063 -0.127 0.076 -0.131 Q 0.085 -0.131 0.09 -0.114 Q 0.10400000000000001 -0.121 0.11 -0.121 Q 0.117 -0.121 0.121 -0.11 Q 0.121 -0.101 0.098 -0.094 Q 0.132 0 0.193 0 Q 0.25 0 0.259 -0.168 Q 0.26 -0.189 0.26 -0.209 L 0.26 -0.47600000000000003 Q 0.26 -0.625 0.202 -0.67 Q 0.185 -0.683 0.166 -0.683 Q 0.12 -0.683 0.097 -0.634 Q 0.08600000000000001 -0.612 0.08600000000000001 -0.587 Q 0.08600000000000001 -0.559 0.123 -0.527 Q 0.194 -0.458 0.194 -0.394 Q 0.194 -0.256 0.126 -0.244 Q 0.12 -0.243 0.114 -0.243 Q 0.066 -0.243 0.057 -0.308 Q 0.056 -0.316 0.056 -0.321 Q 0.056 -0.336 0.069 -0.336 Q 0.081 -0.336 0.081 -0.321 Q 0.084 -0.265 0.113 -0.265 Q 0.158 -0.265 0.161 -0.357 Q 0.162 -0.369 0.162 -0.383 Q 0.162 -0.422 0.148 -0.444 Q 0.137 -0.463 0.109 -0.491 Q 0.064 -0.536 0.058 -0.5670000000000001 Q 0.056 -0.5760000000000001 0.056 -0.585 Q 0.056 -0.644 0.1 -0.68 Q 0.129 -0.705 0.167 -0.705 Q 0.243 -0.705 0.297 -0.621 Q 0.303 -0.612 0.308 -0.602 Q 0.361 -0.6910000000000001 0.5 -0.712 Q 0.529 -0.716 0.549 -0.716 Q 0.5640000000000001 -0.716 0.5690000000000001 -0.709 L 0.5690000000000001 -0.708 L 0.5700000000000001 -0.707 L 0.5700000000000001 -0.706 Q 0.5710000000000001 -0.705 0.5720000000000001 -0.7030000000000001 M 0.624 -0.439 L 0.496 -0.668 Q 0.49 -0.678 0.487 -0.678 Q 0.467 -0.678 0.423 -0.659 Q 0.34500000000000003 -0.625 0.324 -0.5630000000000001 Q 0.343 -0.507 0.343 -0.447 L 0.343 -0.376 L 0.49 -0.376 Q 0.526 -0.376 0.5700000000000001 -0.396 Q 0.611 -0.41200000000000003 0.63 -0.428 L 0.624 -0.439 Z"/></g><g transform="translate(5.619585087662983,7.6971428571428575)"><path fill="rgb(0,0,0)" stroke="none" paint-order="stroke fill markers" d=" M 0.4189453125 2.25390625 Q 0.37890625 2.2138671875 0.35498046875 2.161865234375 Q 0.3310546875 2.10986328125 0.3310546875 2.05615234375 L 0.3310546875 1.466796875 Q 0.3310546875 1.40673828125 0.30615234375 1.351318359375 Q 0.28125 1.2958984375 0.237548828125 1.25244140625 Q 0.19384765625 1.208984375 0.13916015625 1.18115234375 Q 0.130859375 1.17724609375 0.130859375 1.1728515625 L 0.130859375 1.14697265625 Q 0.130859375 1.14208984375 0.13916015625 1.13818359375 Q 0.181640625 1.1162109375 0.21630859375 1.086181640625 Q 0.2509765625 1.05615234375 0.2763671875 1.02001953125 Q 0.3017578125 0.98388671875 0.31640625 0.940185546875 Q 0.3310546875 0.896484375 0.3310546875 0.85205078125 L 0.3310546875 0.26318359375 Q 0.3310546875 0.208984375 0.35498046875 0.156982421875 Q 0.37890625 0.10498046875 0.4189453125 0.06494140625 Q 0.44921875 0.03466796875 0.500244140625 0.001220703125 Q 0.55126953125 -0.0322265625 0.583984375 -0.0400390625 L 0.60986328125 -0.0400390625 Q 0.61279296875 -0.0400390625 0.615478515625 -0.037841796875 Q 0.6181640625 -0.03564453125 0.6181640625 -0.0322265625 L 0.6181640625 -0.005859375 Q 0.6181640625 -0.00048828125 0.61181640625 0.0029296875 Q 0.52783203125 0.0400390625 0.472900390625 0.10986328125 Q 0.41796875 0.1796875 0.41796875 0.26513671875 L 0.41796875 0.85400390625 Q 0.41796875 0.9208984375 0.386474609375 0.98095703125 Q 0.35498046875 1.041015625 0.303466796875 1.08544921875 Q 0.251953125 1.1298828125 0.18798828125 1.16015625 Q 0.236328125 1.18212890625 0.277099609375 1.21240234375 Q 0.31787109375 1.24267578125 0.34912109375 1.280517578125 Q 0.38037109375 1.318359375 0.399169921875 1.36572265625 Q 0.41796875 1.4130859375 0.41796875 1.46484375 L 0.41796875 2.05419921875 Q 0.41796875 2.095703125 0.433349609375 2.136474609375 Q 0.44873046875 2.17724609375 0.47509765625 2.2109375 Q 0.50146484375 2.24462890625 0.537841796875 2.272216796875 Q 0.57421875 2.2998046875 0.61181640625 2.31689453125 Q 0.6181640625 2.31884765625 0.6181640625 2.3251953125 L 0.6181640625 2.35107421875 Q 0.6181640625 2.35400390625 0.615478515625 2.3564453125 Q 0.61279296875 2.35888671875 0.60986328125 2.35888671875 L 0.583984375 2.35888671875 Q 0.55224609375 2.35107421875 0.500244140625 2.317138671875 Q 0.4482421875 2.283203125 0.4189453125 2.25390625 Z"/></g><g transform="translate(6.369585087662983,9.107142857142858)"><path fill="rgb(0,0,0)" stroke="none" paint-order="stroke fill markers" d=" M 0.661 -0.23 L 0.116 -0.23 Q 0.084 -0.23 0.083 -0.25 Q 0.083 -0.27 0.116 -0.27 L 0.661 -0.27 Q 0.6930000000000001 -0.27 0.6940000000000001 -0.25 Q 0.6940000000000001 -0.23 0.661 -0.23 Z"/></g><g transform="translate(7.147585087662984,9.107142857142858)"><path fill="rgb(0,0,0)" stroke="none" paint-order="stroke fill markers" d=" M 0.397 -0.625 Q 0.397 -0.597 0.369 -0.58 Q 0.356 -0.5720000000000001 0.343 -0.5720000000000001 Q 0.313 -0.5720000000000001 0.307 -0.599 L 0.307 -0.6 Q 0.306 -0.604 0.306 -0.608 Q 0.306 -0.639 0.337 -0.655 Q 0.34800000000000003 -0.661 0.359 -0.661 Q 0.389 -0.661 0.396 -0.634 Q 0.397 -0.629 0.397 -0.625 M 0.196 0.05 L 0.196 0.05 L 0.29 -0.323 Q 0.297 -0.353 0.297 -0.374 Q 0.297 -0.42 0.265 -0.42 Q 0.20400000000000001 -0.42 0.155 -0.332 Q 0.146 -0.316 0.139 -0.298 Q 0.127 -0.279 0.121 -0.278 Q 0.109 -0.278 0.109 -0.28800000000000003 Q 0.109 -0.301 0.135 -0.34500000000000003 Q 0.193 -0.442 0.268 -0.442 Q 0.324 -0.442 0.34900000000000003 -0.397 Q 0.36 -0.376 0.36 -0.35000000000000003 Q 0.36 -0.333 0.355 -0.313 L 0.263 0.053 Q 0.241 0.14 0.159 0.183 Q 0.117 0.20500000000000002 0.075 0.20500000000000002 Q 0.012 0.20500000000000002 -0.007 0.167 Q -0.013000000000000001 0.156 -0.013000000000000001 0.14300000000000002 Q -0.013000000000000001 0.105 0.021 0.09 Q 0.031 0.08600000000000001 0.041 0.08600000000000001 Q 0.07200000000000001 0.08600000000000001 0.078 0.113 Q 0.079 0.117 0.079 0.121 Q 0.079 0.151 0.051000000000000004 0.167 Q 0.043000000000000003 0.17200000000000001 0.034 0.17400000000000002 Q 0.052000000000000005 0.183 0.073 0.183 Q 0.132 0.183 0.17200000000000001 0.111 Q 0.188 0.083 0.196 0.05 Z"/></g><g transform="translate(7.616585087662984,9.107142857142858)"><path fill="rgb(0,0,0)" stroke="none" paint-order="stroke fill markers" d=" M 0.264 -0.082 Q 0.201 0.011 0.11900000000000001 0.011 Q 0.032 0.011 0.016 -0.089 Q 0.013000000000000001 -0.109 0.013000000000000001 -0.131 Q 0.013000000000000001 -0.22 0.051000000000000004 -0.311 Q 0.082 -0.382 0.112 -0.419 Q 0.122 -0.431 0.127 -0.431 Q 0.139 -0.431 0.139 -0.419 Q 0.139 -0.41400000000000003 0.129 -0.4 Q 0.045 -0.28 0.045 -0.17500000000000002 Q 0.045 -0.08 0.109 -0.064 Q 0.12 -0.061 0.133 -0.061 Q 0.201 -0.061 0.257 -0.138 Q 0.264 -0.145 0.266 -0.165 Q 0.276 -0.23800000000000002 0.28700000000000003 -0.266 Q 0.3 -0.291 0.315 -0.291 Q 0.334 -0.291 0.336 -0.268 Q 0.336 -0.24 0.308 -0.168 Q 0.306 -0.161 0.303 -0.155 Q 0.297 -0.14400000000000002 0.297 -0.139 Q 0.297 -0.111 0.317 -0.084 Q 0.335 -0.061 0.372 -0.061 Q 0.449 -0.061 0.511 -0.14400000000000002 Q 0.562 -0.214 0.562 -0.28 Q 0.562 -0.331 0.527 -0.367 Q 0.512 -0.38 0.512 -0.394 Q 0.512 -0.419 0.539 -0.435 Q 0.55 -0.442 0.562 -0.442 Q 0.599 -0.442 0.604 -0.388 Q 0.605 -0.377 0.605 -0.371 Q 0.605 -0.307 0.5750000000000001 -0.213 Q 0.55 -0.136 0.511 -0.082 Q 0.443 0.011 0.358 0.011 Q 0.277 0.011 0.264 -0.082 Z"/></g><g transform="translate(8.44125175432965,7.746142857142858)"><path fill="rgb(0,0,0)" stroke="none" paint-order="stroke fill markers" d=" M 0.10595703125 2.1708984375 Q 0.130859375 2.19580078125 0.1669921875 2.19580078125 Q 0.203125 2.19580078125 0.23291015625 2.146240234375 Q 0.2626953125 2.0966796875 0.28515625 2.0224609375 Q 0.3076171875 1.9482421875 0.318115234375 1.898193359375 Q 0.32861328125 1.84814453125 0.34423828125 1.76904296875 Q 0.3583984375 1.6953125 0.37158203125 1.62109375 Q 0.384765625 1.546875 0.398681640625 1.463134765625 Q 0.41259765625 1.37939453125 0.427978515625 1.293212890625 Q 0.443359375 1.20703125 0.462890625 1.10986328125 Q 0.4892578125 0.98193359375 0.500732421875 0.927001953125 Q 0.51220703125 0.8720703125 0.53564453125 0.768310546875 Q 0.55908203125 0.66455078125 0.566650390625 0.631591796875 Q 0.57421875 0.5986328125 0.60986328125 0.451171875 L 0.623046875 0.39892578125 Q 0.6455078125 0.31103515625 0.65771484375 0.265869140625 Q 0.669921875 0.220703125 0.695556640625 0.155517578125 Q 0.72119140625 0.09033203125 0.755859375 0.045166015625 Q 0.79052734375 0 0.83203125 0 Q 0.861328125 0 0.886474609375 0.01318359375 Q 0.91162109375 0.0263671875 0.92724609375 0.04931640625 Q 0.94287109375 0.072265625 0.94287109375 0.10205078125 Q 0.94287109375 0.12353515625 0.9287109375 0.1376953125 Q 0.91455078125 0.15185546875 0.89306640625 0.15185546875 Q 0.87109375 0.15185546875 0.8564453125 0.1376953125 Q 0.841796875 0.12353515625 0.841796875 0.10205078125 Q 0.841796875 0.080078125 0.8564453125 0.0654296875 Q 0.87109375 0.05078125 0.89306640625 0.05078125 Q 0.8671875 0.02587890625 0.8330078125 0.02587890625 Q 0.814453125 0.02587890625 0.792236328125 0.080078125 Q 0.77001953125 0.13427734375 0.751220703125 0.207763671875 Q 0.732421875 0.28125 0.722412109375 0.330322265625 Q 0.71240234375 0.37939453125 0.6982421875 0.453125 Q 0.681640625 0.53662109375 0.670654296875 0.5986328125 Q 0.65966796875 0.66064453125 0.64404296875 0.751953125 Q 0.62841796875 0.84326171875 0.613525390625 0.92578125 Q 0.5986328125 1.00830078125 0.578125 1.11181640625 Q 0.56494140625 1.17724609375 0.5400390625 1.295654296875 Q 0.51513671875 1.4140625 0.507080078125 1.44970703125 Q 0.4990234375 1.4853515625 0.466064453125 1.6240234375 Q 0.43310546875 1.7626953125 0.43115234375 1.77099609375 L 0.4189453125 1.81689453125 Q 0.39306640625 1.9228515625 0.366943359375 2.003173828125 Q 0.3408203125 2.08349609375 0.290283203125 2.15283203125 Q 0.23974609375 2.22216796875 0.1669921875 2.22216796875 Q 0.12353515625 2.22216796875 0.08984375 2.19287109375 Q 0.05615234375 2.16357421875 0.05615234375 2.12109375 Q 0.05615234375 2.09912109375 0.07080078125 2.08447265625 Q 0.08544921875 2.06982421875 0.10693359375 2.06982421875 Q 0.12109375 2.06982421875 0.132568359375 2.07666015625 Q 0.14404296875 2.08349609375 0.150634765625 2.09521484375 Q 0.1572265625 2.10693359375 0.1572265625 2.12109375 Q 0.1572265625 2.142578125 0.142578125 2.15673828125 Q 0.1279296875 2.1708984375 0.10595703125 2.1708984375 Z"/></g><g transform="translate(8.99725175432965,10.003142857142858) scale(0.7,0.7)"><path fill="rgb(0,0,0)" stroke="none" paint-order="stroke fill markers" d=" M 0.554 -0.68 L 0.582 -0.455 L 0.557 -0.455 Q 0.544 -0.5650000000000001 0.515 -0.602 Q 0.47900000000000004 -0.649 0.377 -0.649 L 0.274 -0.649 Q 0.23500000000000001 -0.649 0.228 -0.637 L 0.228 -0.636 L 0.228 -0.636 L 0.228 -0.635 Q 0.225 -0.629 0.225 -0.609 L 0.225 -0.079 Q 0.225 -0.05 0.23700000000000002 -0.042 Q 0.253 -0.031 0.32 -0.031 L 0.353 -0.031 L 0.353 0 Q 0.317 -0.003 0.185 -0.003 Q 0.068 -0.003 0.033 0 L 0.033 -0.031 L 0.057 -0.031 Q 0.122 -0.031 0.132 -0.048 Q 0.136 -0.055 0.136 -0.078 L 0.136 -0.602 Q 0.136 -0.632 0.124 -0.64 Q 0.11 -0.649 0.057 -0.649 L 0.033 -0.649 L 0.033 -0.68 L 0.554 -0.68 Z"/></g><g transform="translate(9.43475175432965,10.108142857142859) scale(0.5,0.5)"><path fill="rgb(0,0,0)" stroke="none" paint-order="stroke fill markers" d=" M 0.227 -0.316 L 0.227 -0.078 Q 0.227 -0.048 0.23900000000000002 -0.04 Q 0.253 -0.031 0.306 -0.031 L 0.33 -0.031 L 0.33 0 Q 0.295 -0.003 0.182 -0.003 Q 0.07 -0.003 0.035 0 L 0.035 -0.031 L 0.059000000000000004 -0.031 Q 0.124 -0.031 0.134 -0.048 Q 0.138 -0.055 0.138 -0.078 L 0.138 -0.605 Q 0.138 -0.635 0.126 -0.643 Q 0.112 -0.652 0.059000000000000004 -0.652 L 0.035 -0.652 L 0.035 -0.683 L 0.388 -0.683 Q 0.504 -0.683 0.5740000000000001 -0.611 Q 0.624 -0.561 0.624 -0.497 Q 0.624 -0.418 0.547 -0.363 Q 0.481 -0.316 0.396 -0.316 L 0.227 -0.316 M 0.224 -0.342 L 0.362 -0.342 Q 0.514 -0.342 0.521 -0.47400000000000003 L 0.521 -0.497 Q 0.521 -0.578 0.485 -0.613 Q 0.445 -0.652 0.362 -0.652 L 0.273 -0.652 Q 0.234 -0.652 0.227 -0.64 L 0.227 -0.639 L 0.227 -0.639 L 0.227 -0.638 Q 0.224 -0.632 0.224 -0.612 L 0.224 -0.342 Z"/></g><g transform="translate(9.77525175432965,10.108142857142859) scale(0.5,0.5)"><path fill="rgb(0,0,0)" stroke="none" paint-order="stroke fill markers" d=" M 0.652 -0.258 L 0.61 0 L 0.033 0 L 0.033 -0.031 L 0.057 -0.031 Q 0.122 -0.031 0.132 -0.048 Q 0.136 -0.055 0.136 -0.078 L 0.136 -0.602 Q 0.136 -0.632 0.124 -0.64 Q 0.11 -0.649 0.057 -0.649 L 0.033 -0.649 L 0.033 -0.68 L 0.596 -0.68 L 0.624 -0.455 L 0.599 -0.455 Q 0.586 -0.5650000000000001 0.553 -0.603 Q 0.513 -0.649 0.403 -0.649 L 0.274 -0.649 Q 0.23500000000000001 -0.649 0.228 -0.637 L 0.228 -0.636 L 0.228 -0.636 L 0.228 -0.635 Q 0.225 -0.629 0.225 -0.609 L 0.225 -0.369 L 0.315 -0.369 Q 0.392 -0.369 0.41100000000000003 -0.403 L 0.41100000000000003 -0.403 Q 0.41600000000000004 -0.41200000000000003 0.418 -0.425 Q 0.423 -0.445 0.423 -0.486 L 0.448 -0.486 L 0.448 -0.221 L 0.423 -0.221 Q 0.423 -0.294 0.402 -0.315 Q 0.379 -0.338 0.315 -0.338 L 0.225 -0.338 L 0.225 -0.07100000000000001 Q 0.225 -0.041 0.23600000000000002 -0.036000000000000004 L 0.23700000000000002 -0.036000000000000004 Q 0.246 -0.031 0.274 -0.031 L 0.40700000000000003 -0.031 Q 0.529 -0.031 0.5740000000000001 -0.089 Q 0.603 -0.127 0.62 -0.22 L 0.627 -0.258 L 0.652 -0.258 Z"/></g><g transform="translate(10.11575175432965,10.108142857142859) scale(0.5,0.5)"><path fill="rgb(0,0,0)" stroke="none" paint-order="stroke fill markers" d=" M 0.665 -0.681 L 0.665 -0.444 Q 0.665 -0.423 0.659 -0.421 L 0.659 -0.421 Q 0.656 -0.42 0.649 -0.42 Q 0.636 -0.42 0.634 -0.429 Q 0.634 -0.431 0.633 -0.437 Q 0.614 -0.5760000000000001 0.525 -0.639 Q 0.47500000000000003 -0.674 0.41500000000000004 -0.674 Q 0.329 -0.674 0.262 -0.618 Q 0.246 -0.604 0.232 -0.588 L 0.231 -0.587 Q 0.159 -0.5 0.159 -0.341 Q 0.159 -0.111 0.306 -0.036000000000000004 Q 0.36 -0.009000000000000001 0.41600000000000004 -0.009000000000000001 Q 0.513 -0.009000000000000001 0.578 -0.08 Q 0.635 -0.14200000000000002 0.64 -0.234 Q 0.641 -0.249 0.652 -0.25 Q 0.665 -0.25 0.665 -0.233 Q 0.665 -0.14 0.598 -0.065 Q 0.521 0.022 0.404 0.022 Q 0.269 0.022 0.169 -0.074 Q 0.064 -0.17400000000000002 0.057 -0.322 Q 0.056 -0.332 0.056 -0.342 Q 0.056 -0.49 0.156 -0.596 Q 0.251 -0.6970000000000001 0.384 -0.704 Q 0.394 -0.705 0.404 -0.705 Q 0.496 -0.705 0.5710000000000001 -0.636 L 0.588 -0.619 L 0.638 -0.6930000000000001 Q 0.646 -0.705 0.654 -0.705 Q 0.664 -0.6960000000000001 0.665 -0.681 Z"/></g><g transform="translate(10.476751754329651,8.297142857142857)"><path fill="rgb(0,0,0)" stroke="none" paint-order="stroke fill markers" d=" M 0.39111328125 1.1572265625 Q 0.267578125 1.0537109375 0.209716796875 0.89599609375 Q 0.15185546875 0.73828125 0.15185546875 0.56005859375 Q 0.15185546875 0.38037109375 0.209716796875 0.222412109375 Q 0.267578125 0.064453125 0.39111328125 -0.0380859375 Q 0.39111328125 -0.0400390625 0.39599609375 -0.0400390625 L 0.408203125 -0.0400390625 Q 0.4111328125 -0.0400390625 0.41357421875 -0.036865234375 Q 0.416015625 -0.03369140625 0.416015625 -0.03076171875 Q 0.416015625 -0.02685546875 0.4140625 -0.02490234375 Q 0.35986328125 0.03125 0.322998046875 0.10009765625 Q 0.2861328125 0.1689453125 0.264892578125 0.242919921875 Q 0.24365234375 0.31689453125 0.234375 0.3974609375 Q 0.22509765625 0.47802734375 0.22509765625 0.56103515625 Q 0.22509765625 0.94873046875 0.4140625 1.14404296875 Q 0.416015625 1.14599609375 0.416015625 1.14990234375 Q 0.416015625 1.15283203125 0.413330078125 1.156005859375 Q 0.41064453125 1.1591796875 0.408203125 1.1591796875 L 0.39599609375 1.1591796875 Q 0.39111328125 1.1591796875 0.39111328125 1.1572265625 Z"/></g><g transform="translate(10.934751754329652,9.107142857142858)"><path fill="rgb(0,0,0)" stroke="none" paint-order="stroke fill markers" d=" M 0.14100000000000001 -0.227 L 0.14100000000000001 -0.227 Q 0.076 -0.195 0.057 -0.137 Q 0.052000000000000005 -0.123 0.052000000000000005 -0.11 Q 0.052000000000000005 -0.036000000000000004 0.166 -0.025 Q 0.182 -0.024 0.198 -0.024 Q 0.316 -0.024 0.35100000000000003 -0.077 Q 0.353 -0.079 0.356 -0.084 Q 0.361 -0.091 0.366 -0.091 Q 0.377 -0.091 0.377 -0.081 Q 0.377 -0.065 0.34700000000000003 -0.036000000000000004 Q 0.28600000000000003 0.022 0.189 0.022 Q 0.08700000000000001 0.022 0.044 -0.043000000000000003 Q 0.026000000000000002 -0.07100000000000001 0.026000000000000002 -0.10400000000000001 Q 0.026000000000000002 -0.164 0.081 -0.213 Q 0.097 -0.228 0.117 -0.23900000000000002 Q 0.077 -0.269 0.077 -0.31 Q 0.077 -0.369 0.15 -0.41300000000000003 Q 0.217 -0.453 0.3 -0.453 Q 0.365 -0.453 0.41100000000000003 -0.419 Q 0.429 -0.406 0.429 -0.396 Q 0.429 -0.378 0.41100000000000003 -0.371 Q 0.406 -0.369 0.402 -0.369 Q 0.396 -0.369 0.382 -0.379 Q 0.342 -0.40700000000000003 0.29 -0.40700000000000003 Q 0.193 -0.40700000000000003 0.136 -0.367 Q 0.10200000000000001 -0.342 0.10200000000000001 -0.31 Q 0.10200000000000001 -0.273 0.14200000000000002 -0.252 Q 0.183 -0.271 0.23500000000000001 -0.271 Q 0.306 -0.271 0.308 -0.244 Q 0.308 -0.213 0.227 -0.213 Q 0.17400000000000002 -0.213 0.14100000000000001 -0.227 M 0.17400000000000002 -0.24 Q 0.193 -0.23500000000000001 0.227 -0.23500000000000001 Q 0.265 -0.23500000000000001 0.28200000000000003 -0.243 Q 0.26 -0.249 0.23500000000000001 -0.249 Q 0.2 -0.249 0.17400000000000002 -0.24 Z"/></g><g transform="translate(11.40075175432965,9.107142857142858)"><path fill="rgb(0,0,0)" stroke="none" paint-order="stroke fill markers" d=" M 0.781 -0.23800000000000002 L 0.685 -0.021 Q 0.679 -0.006 0.673 -0.003 Q 0.667 0 0.648 0 L 0.077 0 Q 0.043000000000000003 0 0.043000000000000003 -0.018000000000000002 Q 0.043000000000000003 -0.038 0.055 -0.045 Q 0.059000000000000004 -0.047 0.08700000000000001 -0.047 Q 0.123 -0.047 0.14 -0.048 Q 0.153 -0.049 0.1565 -0.052000000000000005 Q 0.16 -0.055 0.163 -0.067 L 0.304 -0.631 Q 0.262 -0.633 0.243 -0.633 Q 0.226 -0.633 0.2195 -0.6335000000000001 Q 0.213 -0.634 0.20750000000000002 -0.638 Q 0.202 -0.642 0.202 -0.651 Q 0.202 -0.669 0.211 -0.675 Q 0.217 -0.68 0.23800000000000002 -0.68 L 0.792 -0.68 Q 0.8250000000000001 -0.68 0.8250000000000001 -0.662 L 0.8240000000000001 -0.646 L 0.806 -0.467 Q 0.805 -0.456 0.8035 -0.4515 Q 0.802 -0.447 0.797 -0.443 Q 0.792 -0.439 0.782 -0.439 Q 0.758 -0.439 0.758 -0.458 Q 0.758 -0.466 0.76 -0.4855 Q 0.762 -0.505 0.762 -0.514 Q 0.762 -0.583 0.7275 -0.608 Q 0.6930000000000001 -0.633 0.609 -0.633 L 0.47800000000000004 -0.633 Q 0.457 -0.633 0.444 -0.631 L 0.381 -0.376 L 0.441 -0.376 Q 0.499 -0.376 0.525 -0.394 Q 0.551 -0.41200000000000003 0.5660000000000001 -0.467 Q 0.5700000000000001 -0.483 0.5745 -0.488 Q 0.579 -0.493 0.592 -0.493 Q 0.616 -0.493 0.616 -0.47500000000000003 Q 0.616 -0.47200000000000003 0.612 -0.459 L 0.556 -0.23600000000000002 Q 0.553 -0.225 0.5515 -0.2215 Q 0.55 -0.218 0.545 -0.215 Q 0.54 -0.212 0.531 -0.212 Q 0.508 -0.212 0.508 -0.23 L 0.509 -0.24 Q 0.517 -0.264 0.517 -0.28600000000000003 Q 0.517 -0.311 0.5 -0.32 Q 0.483 -0.329 0.438 -0.329 L 0.369 -0.329 L 0.299 -0.048 Q 0.306 -0.047 0.323 -0.047 L 0.453 -0.047 Q 0.5720000000000001 -0.047 0.6285000000000001 -0.0915 Q 0.685 -0.136 0.734 -0.245 Q 0.743 -0.266 0.747 -0.27 Q 0.751 -0.274 0.763 -0.274 Q 0.787 -0.274 0.787 -0.256 Q 0.787 -0.251 0.781 -0.23800000000000002 Z"/></g><g transform="translate(12.487973976551872,9.107142857142858)"><path fill="rgb(0,0,0)" stroke="none" paint-order="stroke fill markers" d=" M 0.192 -0.25 Q 0.192 -0.217 0.162 -0.202 Q 0.151 -0.197 0.139 -0.197 Q 0.106 -0.197 0.091 -0.227 Q 0.08600000000000001 -0.23800000000000002 0.08600000000000001 -0.25 Q 0.08600000000000001 -0.28300000000000003 0.116 -0.298 Q 0.127 -0.303 0.139 -0.303 Q 0.17200000000000001 -0.303 0.187 -0.273 Q 0.192 -0.262 0.192 -0.25 Z"/></g><g transform="translate(12.988196198774094,9.107142857142858)"><path fill="rgb(0,0,0)" stroke="none" paint-order="stroke fill markers" d=" M 0.781 -0.23800000000000002 L 0.685 -0.021 Q 0.679 -0.006 0.673 -0.003 Q 0.667 0 0.648 0 L 0.077 0 Q 0.043000000000000003 0 0.043000000000000003 -0.018000000000000002 Q 0.043000000000000003 -0.038 0.055 -0.045 Q 0.059000000000000004 -0.047 0.08700000000000001 -0.047 Q 0.123 -0.047 0.14 -0.048 Q 0.153 -0.049 0.1565 -0.052000000000000005 Q 0.16 -0.055 0.163 -0.067 L 0.304 -0.631 Q 0.262 -0.633 0.243 -0.633 Q 0.226 -0.633 0.2195 -0.6335000000000001 Q 0.213 -0.634 0.20750000000000002 -0.638 Q 0.202 -0.642 0.202 -0.651 Q 0.202 -0.669 0.211 -0.675 Q 0.217 -0.68 0.23800000000000002 -0.68 L 0.792 -0.68 Q 0.8250000000000001 -0.68 0.8250000000000001 -0.662 L 0.8240000000000001 -0.646 L 0.806 -0.467 Q 0.805 -0.456 0.8035 -0.4515 Q 0.802 -0.447 0.797 -0.443 Q 0.792 -0.439 0.782 -0.439 Q 0.758 -0.439 0.758 -0.458 Q 0.758 -0.466 0.76 -0.4855 Q 0.762 -0.505 0.762 -0.514 Q 0.762 -0.583 0.7275 -0.608 Q 0.6930000000000001 -0.633 0.609 -0.633 L 0.47800000000000004 -0.633 Q 0.457 -0.633 0.444 -0.631 L 0.381 -0.376 L 0.441 -0.376 Q 0.499 -0.376 0.525 -0.394 Q 0.551 -0.41200000000000003 0.5660000000000001 -0.467 Q 0.5700000000000001 -0.483 0.5745 -0.488 Q 0.579 -0.493 0.592 -0.493 Q 0.616 -0.493 0.616 -0.47500000000000003 Q 0.616 -0.47200000000000003 0.612 -0.459 L 0.556 -0.23600000000000002 Q 0.553 -0.225 0.5515 -0.2215 Q 0.55 -0.218 0.545 -0.215 Q 0.54 -0.212 0.531 -0.212 Q 0.508 -0.212 0.508 -0.23 L 0.509 -0.24 Q 0.517 -0.264 0.517 -0.28600000000000003 Q 0.517 -0.311 0.5 -0.32 Q 0.483 -0.329 0.438 -0.329 L 0.369 -0.329 L 0.299 -0.048 Q 0.306 -0.047 0.323 -0.047 L 0.453 -0.047 Q 0.5720000000000001 -0.047 0.6285000000000001 -0.0915 Q 0.685 -0.136 0.734 -0.245 Q 0.743 -0.266 0.747 -0.27 Q 0.751 -0.274 0.763 -0.274 Q 0.787 -0.274 0.787 -0.256 Q 0.787 -0.251 0.781 -0.23800000000000002 Z"/></g><g transform="translate(13.853196198774095,8.691418457142857) scale(0.7,0.7)"><path fill="rgb(0,0,0)" stroke="none" paint-order="stroke fill markers" d=" M 0.333 -0.076 Q 0.308 -0.014 0.245 0.005 Q 0.225 0.011 0.202 0.011 Q 0.117 0.011 0.07100000000000001 -0.03 Q 0.042 -0.056 0.042 -0.095 Q 0.042 -0.17200000000000001 0.127 -0.218 Q 0.134 -0.222 0.14200000000000002 -0.225 Q 0.203 -0.254 0.321 -0.261 L 0.326 -0.261 L 0.326 -0.298 Q 0.326 -0.383 0.265 -0.41500000000000004 Q 0.244 -0.426 0.22 -0.426 Q 0.154 -0.426 0.11800000000000001 -0.387 Q 0.115 -0.383 0.112 -0.38 Q 0.159 -0.374 0.163 -0.334 Q 0.163 -0.3 0.132 -0.29 Q 0.125 -0.28800000000000003 0.117 -0.28800000000000003 Q 0.081 -0.28800000000000003 0.073 -0.321 Q 0.07100000000000001 -0.326 0.07100000000000001 -0.335 Q 0.07100000000000001 -0.395 0.134 -0.427 Q 0.17300000000000001 -0.448 0.222 -0.448 Q 0.304 -0.448 0.359 -0.393 Q 0.394 -0.357 0.395 -0.293 L 0.395 -0.292 L 0.395 -0.275 L 0.395 -0.075 Q 0.395 -0.046 0.41300000000000003 -0.032 Q 0.421 -0.025 0.432 -0.025 Q 0.467 -0.025 0.468 -0.089 L 0.468 -0.145 L 0.493 -0.145 L 0.493 -0.089 Q 0.493 -0.016 0.433 0.002 Q 0.421 0.006 0.41100000000000003 0.006 Q 0.362 0.006 0.341 -0.046 Q 0.335 -0.06 0.333 -0.076 M 0.326 -0.24 Q 0.17200000000000001 -0.234 0.13 -0.146 Q 0.11900000000000001 -0.122 0.11900000000000001 -0.096 Q 0.11900000000000001 -0.045 0.165 -0.021 Q 0.185 -0.011 0.209 -0.011 Q 0.261 -0.011 0.296 -0.052000000000000005 Q 0.326 -0.08600000000000001 0.326 -0.14 L 0.326 -0.24 Z"/></g><g transform="translate(14.203196198774094,8.691418457142857) scale(0.7,0.7)"><path fill="rgb(0,0,0)" stroke="none" paint-order="stroke fill markers" d=" M 0.38 -0.055 Q 0.328 0.011 0.246 0.011 Q 0.154 0.011 0.09 -0.062 Q 0.034 -0.127 0.034 -0.215 Q 0.034 -0.319 0.112 -0.387 Q 0.17500000000000002 -0.442 0.257 -0.442 Q 0.333 -0.442 0.383 -0.38 L 0.383 -0.596 Q 0.383 -0.635 0.369 -0.644 L 0.368 -0.644 Q 0.355 -0.652 0.305 -0.652 L 0.305 -0.683 L 0.449 -0.6940000000000001 L 0.449 -0.08700000000000001 Q 0.449 -0.048 0.464 -0.039 L 0.465 -0.039 Q 0.47900000000000004 -0.031 0.527 -0.031 L 0.527 0 L 0.38 0.011 L 0.38 -0.055 M 0.38 -0.323 Q 0.38 -0.343 0.371 -0.356 L 0.369 -0.36 Q 0.328 -0.42 0.261 -0.42 Q 0.191 -0.42 0.148 -0.356 Q 0.117 -0.308 0.117 -0.214 Q 0.117 -0.121 0.146 -0.075 Q 0.186 -0.011 0.251 -0.011 Q 0.323 -0.011 0.367 -0.077 L 0.369 -0.081 Q 0.38 -0.10200000000000001 0.38 -0.11800000000000001 L 0.38 -0.323 Z"/></g><g transform="translate(14.592396198774095,8.691418457142857) scale(0.7,0.7)"><path fill="rgb(0,0,0)" stroke="none" paint-order="stroke fill markers" d=" M 0.21 -0.442 L 0.21 0.05 Q 0.21 0.135 0.15 0.179 Q 0.116 0.20500000000000002 0.073 0.20500000000000002 Q 0.005 0.20500000000000002 -0.026000000000000002 0.166 Q -0.04 0.148 -0.04 0.125 Q -0.04 0.091 -0.009000000000000001 0.081 Q -0.002 0.079 0.006 0.079 Q 0.041 0.079 0.05 0.111 Q 0.052000000000000005 0.117 0.052000000000000005 0.125 Q 0.052000000000000005 0.158 0.017 0.17 Q 0.043000000000000003 0.183 0.07100000000000001 0.183 Q 0.137 0.183 0.14300000000000002 0.073 Q 0.14400000000000002 0.062 0.14400000000000002 0.052000000000000005 L 0.14400000000000002 -0.34400000000000003 Q 0.14400000000000002 -0.382 0.128 -0.391 L 0.128 -0.392 L 0.127 -0.392 Q 0.112 -0.4 0.058 -0.4 L 0.058 -0.431 L 0.21 -0.442 M 0.21 -0.616 Q 0.21 -0.583 0.18 -0.5680000000000001 Q 0.169 -0.5630000000000001 0.157 -0.5630000000000001 Q 0.124 -0.5630000000000001 0.109 -0.593 Q 0.10400000000000001 -0.604 0.10400000000000001 -0.616 Q 0.10400000000000001 -0.649 0.134 -0.664 Q 0.145 -0.669 0.157 -0.669 Q 0.19 -0.669 0.20500000000000002 -0.639 Q 0.21 -0.628 0.21 -0.616 Z"/></g><g transform="translate(15.043050763994888,9.107142857142858)"><path fill="rgb(0,0,0)" stroke="none" paint-order="stroke fill markers" d=" M 0.40900000000000003 -0.23 L 0.40900000000000003 0.05 Q 0.40900000000000003 0.082 0.389 0.083 Q 0.369 0.083 0.369 0.05 L 0.369 -0.23 L 0.089 -0.23 Q 0.057 -0.23 0.056 -0.25 Q 0.056 -0.27 0.089 -0.27 L 0.369 -0.27 L 0.369 -0.55 Q 0.369 -0.582 0.389 -0.583 Q 0.40900000000000003 -0.583 0.40900000000000003 -0.55 L 0.40900000000000003 -0.27 L 0.6880000000000001 -0.27 Q 0.72 -0.27 0.721 -0.25 Q 0.721 -0.23 0.6880000000000001 -0.23 L 0.40900000000000003 -0.23 Z"/></g><g transform="translate(16.04327298621711,9.107142857142858)"><path fill="rgb(0,0,0)" stroke="none" paint-order="stroke fill markers" d=" M 0.231 -0.35100000000000003 L 0.231 -0.35100000000000003 L 0.189 -0.183 Q 0.17500000000000002 -0.127 0.17500000000000002 -0.098 Q 0.18 -0.014 0.249 -0.011 Q 0.317 -0.011 0.368 -0.08700000000000001 Q 0.378 -0.10300000000000001 0.379 -0.107 Q 0.387 -0.132 0.405 -0.209 L 0.452 -0.396 Q 0.46 -0.431 0.491 -0.431 Q 0.516 -0.426 0.52 -0.404 Q 0.52 -0.406 0.505 -0.337 Q 0.491 -0.28600000000000003 0.488 -0.269 L 0.46 -0.161 Q 0.44 -0.074 0.44 -0.057 Q 0.44 -0.011 0.47000000000000003 -0.011 Q 0.508 -0.011 0.534 -0.091 Q 0.539 -0.108 0.546 -0.135 Q 0.554 -0.152 0.56 -0.153 Q 0.5720000000000001 -0.153 0.5720000000000001 -0.14300000000000002 Q 0.5720000000000001 -0.128 0.554 -0.073 Q 0.548 -0.056 0.542 -0.044 Q 0.514 0.011 0.468 0.011 Q 0.41300000000000003 0.011 0.388 -0.035 Q 0.381 -0.047 0.378 -0.062 Q 0.331 -0.007 0.28500000000000003 0.006 Q 0.266 0.011 0.245 0.011 Q 0.185 0.011 0.148 -0.02 Q 0.097 0.185 0.093 0.195 Q 0.079 0.216 0.058 0.216 Q 0.035 0.216 0.031 0.195 Q 0.03 0.192 0.03 0.189 Q 0.03 0.185 0.033 0.17300000000000001 L 0.177 -0.406 Q 0.186 -0.441 0.217 -0.442 Q 0.243 -0.442 0.246 -0.41500000000000004 Q 0.246 -0.41400000000000003 0.231 -0.35100000000000003 Z"/></g><g transform="translate(16.646272986217113,9.107142857142858)"><path fill="rgb(0,0,0)" stroke="none" paint-order="stroke fill markers" d=" M 0.911 -0.635 L 0.765 -0.049 Q 0.807 -0.047 0.8260000000000001 -0.047 Q 0.843 -0.047 0.8495 -0.0465 Q 0.856 -0.046 0.8615 -0.042 Q 0.867 -0.038 0.867 -0.029 Q 0.867 -0.016 0.861 -0.007 Q 0.856 0 0.838 0 Q 0.8260000000000001 0 0.7995 -0.001 Q 0.773 -0.002 0.76 -0.002 Q 0.748 -0.002 0.722 -0.0025 Q 0.6960000000000001 -0.003 0.683 -0.003 Q 0.67 -0.003 0.645 -0.0025 Q 0.62 -0.002 0.607 -0.002 Q 0.594 -0.002 0.5690000000000001 -0.001 Q 0.544 0 0.531 0 Q 0.509 0 0.509 -0.018000000000000002 Q 0.509 -0.038 0.521 -0.045 Q 0.525 -0.047 0.553 -0.047 Q 0.589 -0.047 0.606 -0.048 Q 0.619 -0.049 0.6225 -0.052000000000000005 Q 0.626 -0.055 0.629 -0.067 L 0.6960000000000001 -0.333 L 0.37 -0.333 L 0.299 -0.049 Q 0.341 -0.047 0.36 -0.047 Q 0.377 -0.047 0.3835 -0.0465 Q 0.39 -0.046 0.3955 -0.042 Q 0.401 -0.038 0.401 -0.029 Q 0.401 -0.016 0.395 -0.007 Q 0.39 0 0.372 0 Q 0.36 0 0.3335 -0.001 Q 0.307 -0.002 0.294 -0.002 Q 0.28200000000000003 -0.002 0.256 -0.0025 Q 0.23 -0.003 0.217 -0.003 Q 0.20400000000000001 -0.003 0.179 -0.0025 Q 0.154 -0.002 0.14100000000000001 -0.002 Q 0.128 -0.002 0.10300000000000001 -0.001 Q 0.078 0 0.065 0 Q 0.043000000000000003 0 0.043000000000000003 -0.018000000000000002 Q 0.043000000000000003 -0.038 0.055 -0.045 Q 0.059000000000000004 -0.047 0.08700000000000001 -0.047 Q 0.123 -0.047 0.14 -0.048 Q 0.153 -0.049 0.1565 -0.052000000000000005 Q 0.16 -0.055 0.163 -0.067 L 0.306 -0.637 Q 0.264 -0.639 0.245 -0.639 Q 0.227 -0.639 0.22 -0.6395000000000001 Q 0.213 -0.64 0.20800000000000002 -0.644 Q 0.203 -0.648 0.203 -0.657 Q 0.203 -0.67 0.209 -0.677 Q 0.215 -0.684 0.22 -0.685 Q 0.225 -0.686 0.232 -0.686 Q 0.245 -0.686 0.2715 -0.685 Q 0.298 -0.684 0.311 -0.684 Q 0.323 -0.684 0.34900000000000003 -0.6835 Q 0.375 -0.683 0.388 -0.683 Q 0.401 -0.683 0.426 -0.6835 Q 0.451 -0.684 0.463 -0.684 Q 0.47600000000000003 -0.684 0.501 -0.685 Q 0.526 -0.686 0.539 -0.686 Q 0.561 -0.686 0.561 -0.668 Q 0.561 -0.65 0.55 -0.642 Q 0.546 -0.639 0.513 -0.639 Q 0.467 -0.639 0.445 -0.635 L 0.382 -0.38 L 0.708 -0.38 L 0.772 -0.637 Q 0.73 -0.639 0.711 -0.639 Q 0.6930000000000001 -0.639 0.686 -0.6395000000000001 Q 0.679 -0.64 0.674 -0.644 Q 0.669 -0.648 0.669 -0.657 Q 0.669 -0.67 0.675 -0.677 Q 0.681 -0.684 0.686 -0.685 Q 0.6910000000000001 -0.686 0.6980000000000001 -0.686 Q 0.711 -0.686 0.7375 -0.685 Q 0.764 -0.684 0.777 -0.684 Q 0.789 -0.684 0.8150000000000001 -0.6835 Q 0.841 -0.683 0.854 -0.683 Q 0.866 -0.683 0.891 -0.6835 Q 0.916 -0.684 0.929 -0.684 Q 0.9420000000000001 -0.684 0.967 -0.685 Q 0.992 -0.686 1.0050000000000001 -0.686 Q 1.027 -0.686 1.027 -0.668 Q 1.027 -0.65 1.016 -0.642 Q 1.012 -0.639 0.979 -0.639 Q 0.933 -0.639 0.911 -0.635 Z"/></g><g transform="translate(17.932495208439335,9.107142857142858)"><path fill="rgb(0,0,0)" stroke="none" paint-order="stroke fill markers" d=" M 0.192 -0.25 Q 0.192 -0.217 0.162 -0.202 Q 0.151 -0.197 0.139 -0.197 Q 0.106 -0.197 0.091 -0.227 Q 0.08600000000000001 -0.23800000000000002 0.08600000000000001 -0.25 Q 0.08600000000000001 -0.28300000000000003 0.116 -0.298 Q 0.127 -0.303 0.139 -0.303 Q 0.17200000000000001 -0.303 0.187 -0.273 Q 0.192 -0.262 0.192 -0.25 Z"/></g><g transform="translate(18.432717430661555,9.107142857142858)"><path fill="rgb(0,0,0)" stroke="none" paint-order="stroke fill markers" d=" M 0.911 -0.635 L 0.765 -0.049 Q 0.807 -0.047 0.8260000000000001 -0.047 Q 0.843 -0.047 0.8495 -0.0465 Q 0.856 -0.046 0.8615 -0.042 Q 0.867 -0.038 0.867 -0.029 Q 0.867 -0.016 0.861 -0.007 Q 0.856 0 0.838 0 Q 0.8260000000000001 0 0.7995 -0.001 Q 0.773 -0.002 0.76 -0.002 Q 0.748 -0.002 0.722 -0.0025 Q 0.6960000000000001 -0.003 0.683 -0.003 Q 0.67 -0.003 0.645 -0.0025 Q 0.62 -0.002 0.607 -0.002 Q 0.594 -0.002 0.5690000000000001 -0.001 Q 0.544 0 0.531 0 Q 0.509 0 0.509 -0.018000000000000002 Q 0.509 -0.038 0.521 -0.045 Q 0.525 -0.047 0.553 -0.047 Q 0.589 -0.047 0.606 -0.048 Q 0.619 -0.049 0.6225 -0.052000000000000005 Q 0.626 -0.055 0.629 -0.067 L 0.6960000000000001 -0.333 L 0.37 -0.333 L 0.299 -0.049 Q 0.341 -0.047 0.36 -0.047 Q 0.377 -0.047 0.3835 -0.0465 Q 0.39 -0.046 0.3955 -0.042 Q 0.401 -0.038 0.401 -0.029 Q 0.401 -0.016 0.395 -0.007 Q 0.39 0 0.372 0 Q 0.36 0 0.3335 -0.001 Q 0.307 -0.002 0.294 -0.002 Q 0.28200000000000003 -0.002 0.256 -0.0025 Q 0.23 -0.003 0.217 -0.003 Q 0.20400000000000001 -0.003 0.179 -0.0025 Q 0.154 -0.002 0.14100000000000001 -0.002 Q 0.128 -0.002 0.10300000000000001 -0.001 Q 0.078 0 0.065 0 Q 0.043000000000000003 0 0.043000000000000003 -0.018000000000000002 Q 0.043000000000000003 -0.038 0.055 -0.045 Q 0.059000000000000004 -0.047 0.08700000000000001 -0.047 Q 0.123 -0.047 0.14 -0.048 Q 0.153 -0.049 0.1565 -0.052000000000000005 Q 0.16 -0.055 0.163 -0.067 L 0.306 -0.637 Q 0.264 -0.639 0.245 -0.639 Q 0.227 -0.639 0.22 -0.6395000000000001 Q 0.213 -0.64 0.20800000000000002 -0.644 Q 0.203 -0.648 0.203 -0.657 Q 0.203 -0.67 0.209 -0.677 Q 0.215 -0.684 0.22 -0.685 Q 0.225 -0.686 0.232 -0.686 Q 0.245 -0.686 0.2715 -0.685 Q 0.298 -0.684 0.311 -0.684 Q 0.323 -0.684 0.34900000000000003 -0.6835 Q 0.375 -0.683 0.388 -0.683 Q 0.401 -0.683 0.426 -0.6835 Q 0.451 -0.684 0.463 -0.684 Q 0.47600000000000003 -0.684 0.501 -0.685 Q 0.526 -0.686 0.539 -0.686 Q 0.561 -0.686 0.561 -0.668 Q 0.561 -0.65 0.55 -0.642 Q 0.546 -0.639 0.513 -0.639 Q 0.467 -0.639 0.445 -0.635 L 0.382 -0.38 L 0.708 -0.38 L 0.772 -0.637 Q 0.73 -0.639 0.711 -0.639 Q 0.6930000000000001 -0.639 0.686 -0.6395000000000001 Q 0.679 -0.64 0.674 -0.644 Q 0.669 -0.648 0.669 -0.657 Q 0.669 -0.67 0.675 -0.677 Q 0.681 -0.684 0.686 -0.685 Q 0.6910000000000001 -0.686 0.6980000000000001 -0.686 Q 0.711 -0.686 0.7375 -0.685 Q 0.764 -0.684 0.777 -0.684 Q 0.789 -0.684 0.8150000000000001 -0.6835 Q 0.841 -0.683 0.854 -0.683 Q 0.866 -0.683 0.891 -0.6835 Q 0.916 -0.684 0.929 -0.684 Q 0.9420000000000001 -0.684 0.967 -0.685 Q 0.992 -0.686 1.0050000000000001 -0.686 Q 1.027 -0.686 1.027 -0.668 Q 1.027 -0.65 1.016 -0.642 Q 1.012 -0.639 0.979 -0.639 Q 0.933 -0.639 0.911 -0.635 Z"/></g><g transform="translate(19.496717430661555,8.691418457142857) scale(0.7,0.7)"><path fill="rgb(0,0,0)" stroke="none" paint-order="stroke fill markers" d=" M 0.333 -0.076 Q 0.308 -0.014 0.245 0.005 Q 0.225 0.011 0.202 0.011 Q 0.117 0.011 0.07100000000000001 -0.03 Q 0.042 -0.056 0.042 -0.095 Q 0.042 -0.17200000000000001 0.127 -0.218 Q 0.134 -0.222 0.14200000000000002 -0.225 Q 0.203 -0.254 0.321 -0.261 L 0.326 -0.261 L 0.326 -0.298 Q 0.326 -0.383 0.265 -0.41500000000000004 Q 0.244 -0.426 0.22 -0.426 Q 0.154 -0.426 0.11800000000000001 -0.387 Q 0.115 -0.383 0.112 -0.38 Q 0.159 -0.374 0.163 -0.334 Q 0.163 -0.3 0.132 -0.29 Q 0.125 -0.28800000000000003 0.117 -0.28800000000000003 Q 0.081 -0.28800000000000003 0.073 -0.321 Q 0.07100000000000001 -0.326 0.07100000000000001 -0.335 Q 0.07100000000000001 -0.395 0.134 -0.427 Q 0.17300000000000001 -0.448 0.222 -0.448 Q 0.304 -0.448 0.359 -0.393 Q 0.394 -0.357 0.395 -0.293 L 0.395 -0.292 L 0.395 -0.275 L 0.395 -0.075 Q 0.395 -0.046 0.41300000000000003 -0.032 Q 0.421 -0.025 0.432 -0.025 Q 0.467 -0.025 0.468 -0.089 L 0.468 -0.145 L 0.493 -0.145 L 0.493 -0.089 Q 0.493 -0.016 0.433 0.002 Q 0.421 0.006 0.41100000000000003 0.006 Q 0.362 0.006 0.341 -0.046 Q 0.335 -0.06 0.333 -0.076 M 0.326 -0.24 Q 0.17200000000000001 -0.234 0.13 -0.146 Q 0.11900000000000001 -0.122 0.11900000000000001 -0.096 Q 0.11900000000000001 -0.045 0.165 -0.021 Q 0.185 -0.011 0.209 -0.011 Q 0.261 -0.011 0.296 -0.052000000000000005 Q 0.326 -0.08600000000000001 0.326 -0.14 L 0.326 -0.24 Z"/></g><g transform="translate(19.846717430661556,8.691418457142857) scale(0.7,0.7)"><path fill="rgb(0,0,0)" stroke="none" paint-order="stroke fill markers" d=" M 0.38 -0.055 Q 0.328 0.011 0.246 0.011 Q 0.154 0.011 0.09 -0.062 Q 0.034 -0.127 0.034 -0.215 Q 0.034 -0.319 0.112 -0.387 Q 0.17500000000000002 -0.442 0.257 -0.442 Q 0.333 -0.442 0.383 -0.38 L 0.383 -0.596 Q 0.383 -0.635 0.369 -0.644 L 0.368 -0.644 Q 0.355 -0.652 0.305 -0.652 L 0.305 -0.683 L 0.449 -0.6940000000000001 L 0.449 -0.08700000000000001 Q 0.449 -0.048 0.464 -0.039 L 0.465 -0.039 Q 0.47900000000000004 -0.031 0.527 -0.031 L 0.527 0 L 0.38 0.011 L 0.38 -0.055 M 0.38 -0.323 Q 0.38 -0.343 0.371 -0.356 L 0.369 -0.36 Q 0.328 -0.42 0.261 -0.42 Q 0.191 -0.42 0.148 -0.356 Q 0.117 -0.308 0.117 -0.214 Q 0.117 -0.121 0.146 -0.075 Q 0.186 -0.011 0.251 -0.011 Q 0.323 -0.011 0.367 -0.077 L 0.369 -0.081 Q 0.38 -0.10200000000000001 0.38 -0.11800000000000001 L 0.38 -0.323 Z"/></g><g transform="translate(20.235917430661555,8.691418457142857) scale(0.7,0.7)"><path fill="rgb(0,0,0)" stroke="none" paint-order="stroke fill markers" d=" M 0.21 -0.442 L 0.21 0.05 Q 0.21 0.135 0.15 0.179 Q 0.116 0.20500000000000002 0.073 0.20500000000000002 Q 0.005 0.20500000000000002 -0.026000000000000002 0.166 Q -0.04 0.148 -0.04 0.125 Q -0.04 0.091 -0.009000000000000001 0.081 Q -0.002 0.079 0.006 0.079 Q 0.041 0.079 0.05 0.111 Q 0.052000000000000005 0.117 0.052000000000000005 0.125 Q 0.052000000000000005 0.158 0.017 0.17 Q 0.043000000000000003 0.183 0.07100000000000001 0.183 Q 0.137 0.183 0.14300000000000002 0.073 Q 0.14400000000000002 0.062 0.14400000000000002 0.052000000000000005 L 0.14400000000000002 -0.34400000000000003 Q 0.14400000000000002 -0.382 0.128 -0.391 L 0.128 -0.392 L 0.127 -0.392 Q 0.112 -0.4 0.058 -0.4 L 0.058 -0.431 L 0.21 -0.442 M 0.21 -0.616 Q 0.21 -0.583 0.18 -0.5680000000000001 Q 0.169 -0.5630000000000001 0.157 -0.5630000000000001 Q 0.124 -0.5630000000000001 0.109 -0.593 Q 0.10400000000000001 -0.604 0.10400000000000001 -0.616 Q 0.10400000000000001 -0.649 0.134 -0.664 Q 0.145 -0.669 0.157 -0.669 Q 0.19 -0.669 0.20500000000000002 -0.639 Q 0.21 -0.628 0.21 -0.616 Z"/></g><g transform="translate(20.46434977366013,8.297142857142857)"><path fill="rgb(0,0,0)" stroke="none" paint-order="stroke fill markers" d=" M 0.0498046875 1.1591796875 Q 0.041015625 1.1591796875 0.041015625 1.14990234375 Q 0.041015625 1.14599609375 0.04296875 1.14404296875 Q 0.11474609375 1.0693359375 0.156494140625 0.974365234375 Q 0.1982421875 0.87939453125 0.215087890625 0.775146484375 Q 0.23193359375 0.6708984375 0.23193359375 0.55908203125 Q 0.23193359375 0.17041015625 0.04296875 -0.02490234375 Q 0.041015625 -0.02685546875 0.041015625 -0.03076171875 Q 0.041015625 -0.0400390625 0.0498046875 -0.0400390625 L 0.06201171875 -0.0400390625 Q 0.06494140625 -0.0400390625 0.06689453125 -0.0380859375 Q 0.18994140625 0.064453125 0.24755859375 0.222412109375 Q 0.30517578125 0.38037109375 0.30517578125 0.56005859375 Q 0.30517578125 0.73828125 0.247802734375 0.89599609375 Q 0.1904296875 1.0537109375 0.06689453125 1.1572265625 Q 0.06494140625 1.1591796875 0.06201171875 1.1591796875 L 0.0498046875 1.1591796875 Z"/></g><g transform="translate(21.089016440326798,9.107142857142858)"><path fill="rgb(0,0,0)" stroke="none" paint-order="stroke fill markers" d=" M 0.516 -0.683 L 0.372 -0.105 Q 0.366 -0.08 0.366 -0.057 Q 0.366 -0.011 0.396 -0.011 Q 0.434 -0.011 0.46 -0.091 Q 0.465 -0.108 0.47200000000000003 -0.135 Q 0.48 -0.152 0.486 -0.153 Q 0.498 -0.153 0.498 -0.14300000000000002 Q 0.498 -0.128 0.48 -0.073 Q 0.47400000000000003 -0.056 0.468 -0.044 Q 0.44 0.011 0.394 0.011 Q 0.338 0.011 0.313 -0.037 Q 0.306 -0.049 0.303 -0.064 Q 0.24 0.011 0.17300000000000001 0.011 Q 0.098 0.011 0.062 -0.057 Q 0.04 -0.097 0.04 -0.149 Q 0.04 -0.257 0.115 -0.34900000000000003 Q 0.185 -0.433 0.267 -0.441 Q 0.274 -0.442 0.281 -0.442 Q 0.342 -0.442 0.373 -0.378 L 0.433 -0.615 L 0.436 -0.635 Q 0.436 -0.646 0.422 -0.649 Q 0.41000000000000003 -0.652 0.386 -0.652 Q 0.364 -0.652 0.362 -0.664 Q 0.362 -0.681 0.376 -0.683 Q 0.47000000000000003 -0.6940000000000001 0.503 -0.6940000000000001 Q 0.516 -0.6940000000000001 0.516 -0.683 M 0.308 -0.11900000000000001 L 0.308 -0.11900000000000001 L 0.358 -0.315 Q 0.361 -0.33 0.361 -0.332 Q 0.361 -0.353 0.343 -0.383 Q 0.321 -0.42 0.28200000000000003 -0.42 Q 0.23 -0.42 0.183 -0.352 Q 0.17400000000000002 -0.339 0.166 -0.324 Q 0.137 -0.266 0.117 -0.159 Q 0.111 -0.125 0.111 -0.105 Q 0.111 -0.037 0.149 -0.017 Q 0.16 -0.011 0.17500000000000002 -0.011 Q 0.231 -0.011 0.28800000000000003 -0.082 Q 0.302 -0.098 0.307 -0.115 L 0.307 -0.116 Q 0.308 -0.11800000000000001 0.308 -0.11900000000000001 Z"/></g><g transform="translate(21.609016440326798,9.107142857142858)"><path fill="rgb(0,0,0)" stroke="none" paint-order="stroke fill markers" d=" M 0.391 -0.374 L 0.391 -0.374 Q 0.37 -0.418 0.301 -0.42 Q 0.22 -0.42 0.195 -0.359 Q 0.189 -0.34400000000000003 0.189 -0.33 Q 0.189 -0.291 0.23700000000000002 -0.277 L 0.23700000000000002 -0.277 L 0.23800000000000002 -0.276 Q 0.245 -0.274 0.265 -0.27 Q 0.327 -0.257 0.34800000000000003 -0.242 Q 0.357 -0.23600000000000002 0.365 -0.228 Q 0.396 -0.197 0.396 -0.155 Q 0.396 -0.10300000000000001 0.357 -0.056 Q 0.301 0.011 0.195 0.011 Q 0.10200000000000001 0.011 0.066 -0.041 Q 0.052000000000000005 -0.061 0.052000000000000005 -0.08600000000000001 Q 0.052000000000000005 -0.135 0.09 -0.149 Q 0.099 -0.152 0.108 -0.152 Q 0.14100000000000001 -0.147 0.145 -0.117 Q 0.145 -0.08600000000000001 0.11800000000000001 -0.07100000000000001 Q 0.10200000000000001 -0.061 0.082 -0.064 Q 0.105 -0.011 0.196 -0.011 Q 0.299 -0.011 0.331 -0.08600000000000001 Q 0.339 -0.105 0.339 -0.121 Q 0.339 -0.169 0.28 -0.187 L 0.28 -0.187 L 0.279 -0.187 Q 0.264 -0.191 0.23500000000000001 -0.197 Q 0.145 -0.216 0.134 -0.277 Q 0.132 -0.28600000000000003 0.132 -0.296 Q 0.132 -0.34600000000000003 0.17 -0.389 Q 0.217 -0.442 0.301 -0.442 Q 0.38 -0.442 0.41000000000000003 -0.393 Q 0.42 -0.376 0.42 -0.356 Q 0.42 -0.311 0.386 -0.302 Q 0.38 -0.3 0.374 -0.3 Q 0.34600000000000003 -0.304 0.343 -0.329 Q 0.343 -0.356 0.37 -0.369 Q 0.38 -0.374 0.391 -0.374 Z"/></g><g transform="translate(22.078016440326792,7.6971428571428575)"><path fill="rgb(0,0,0)" stroke="none" paint-order="stroke fill markers" d=" M 0.130859375 2.35107421875 L 0.130859375 2.3251953125 Q 0.130859375 2.318359375 0.13818359375 2.31689453125 Q 0.19189453125 2.29248046875 0.235595703125 2.2529296875 Q 0.279296875 2.21337890625 0.30517578125 2.16259765625 Q 0.3310546875 2.11181640625 0.3310546875 2.05419921875 L 0.3310546875 1.46484375 Q 0.3310546875 1.4130859375 0.349853515625 1.365966796875 Q 0.36865234375 1.31884765625 0.400146484375 1.280517578125 Q 0.431640625 1.2421875 0.472900390625 1.211669921875 Q 0.51416015625 1.18115234375 0.56103515625 1.16015625 Q 0.46142578125 1.11279296875 0.396240234375 1.033203125 Q 0.3310546875 0.95361328125 0.3310546875 0.85400390625 L 0.3310546875 0.26513671875 Q 0.3310546875 0.20751953125 0.30517578125 0.156494140625 Q 0.279296875 0.10546875 0.235107421875 0.06591796875 Q 0.19091796875 0.0263671875 0.13818359375 0.0029296875 Q 0.130859375 -0.00048828125 0.130859375 -0.005859375 L 0.130859375 -0.0322265625 Q 0.130859375 -0.0400390625 0.14013671875 -0.0400390625 L 0.166015625 -0.0400390625 Q 0.19873046875 -0.03173828125 0.249267578125 0.00146484375 Q 0.2998046875 0.03466796875 0.330078125 0.06494140625 Q 0.35791015625 0.09375 0.376953125 0.1240234375 Q 0.39599609375 0.154296875 0.406982421875 0.190185546875 Q 0.41796875 0.22607421875 0.41796875 0.26318359375 L 0.41796875 0.85205078125 Q 0.41796875 0.9423828125 0.47119140625 1.01806640625 Q 0.5244140625 1.09375 0.60986328125 1.13818359375 Q 0.6181640625 1.142578125 0.6181640625 1.14697265625 L 0.6181640625 1.1728515625 Q 0.6181640625 1.1767578125 0.60986328125 1.18115234375 Q 0.55517578125 1.208984375 0.511474609375 1.25244140625 Q 0.4677734375 1.2958984375 0.44287109375 1.351318359375 Q 0.41796875 1.40673828125 0.41796875 1.466796875 L 0.41796875 2.05615234375 Q 0.41796875 2.09326171875 0.406982421875 2.12890625 Q 0.39599609375 2.16455078125 0.376220703125 2.196044921875 Q 0.3564453125 2.2275390625 0.330078125 2.25390625 Q 0.3115234375 2.2724609375 0.28173828125 2.294677734375 Q 0.251953125 2.31689453125 0.220703125 2.3349609375 Q 0.189453125 2.35302734375 0.166015625 2.35888671875 L 0.14013671875 2.35888671875 Q 0.130859375 2.35888671875 0.130859375 2.35107421875 Z"/></g></g><path fill="rgb(255,255,255)" stroke="none" paint-order="stroke fill markers" fill-rule="evenodd" d=" M 37.5 109 L 166.5 109 C 168.43299662440776 109 170 110.56700337559222 170 112.5 L 170 140.5 C 170 142.43299662440776 168.43299662440776 144 166.5 144 L 37.5 144 C 35.56700337559222 144 34 142.43299662440776 34 140.5 L 34 112.5 C 34 110.56700337559222 35.56700337559222 109 37.5 109 Z" fill-opacity="1"/><path fill="none" stroke="rgb(179,179,179)" paint-order="fill stroke markers" d=" M 37.5 109 L 166.5 109 C 168.43299662440776 109 170 110.56700337559222 170 112.5 L 170 140.5 C 170 142.43299662440776 168.43299662440776 144 166.5 144 L 37.5 144 C 35.56700337559222 144 34 142.43299662440776 34 140.5 L 34 112.5 C 34 110.56700337559222 35.56700337559222 109 37.5 109 Z" stroke-opacity="1" stroke-linecap="round" stroke-linejoin="round" stroke-miterlimit="10"/><text fill="rgb(0,0,0)" stroke="none" font-family="geogebra-sans-serif, sans-serif" font-size="24px" font-style="normal" font-weight="normal" text-decoration="normal" x="44" y="136" text-anchor="start" dominant-baseline="alphabetic" fill-opacity="1">Show SVG</text><path fill="rgb(255,255,255)" stroke="none" paint-order="stroke fill markers" fill-rule="evenodd" d=" M 204.5 106 L 380.5 106 C 382.4329966244078 106 384 107.56700337559222 384 109.5 L 384 137.5 C 384 139.43299662440776 382.4329966244078 141 380.5 141 L 204.5 141 C 202.56700337559224 141 201 139.43299662440776 201 137.5 L 201 109.5 C 201 107.56700337559222 202.56700337559224 106 204.5 106 Z" fill-opacity="1"/><path fill="none" stroke="rgb(179,179,179)" paint-order="fill stroke markers" d=" M 204.5 106 L 380.5 106 C 382.4329966244078 106 384 107.56700337559222 384 109.5 L 384 137.5 C 384 139.43299662440776 382.4329966244078 141 380.5 141 L 204.5 141 C 202.56700337559224 141 201 139.43299662440776 201 137.5 L 201 109.5 C 201 107.56700337559222 202.56700337559224 106 204.5 106 Z" stroke-opacity="1" stroke-linecap="round" stroke-linejoin="round" stroke-miterlimit="10"/><text fill="rgb(0,0,0)" stroke="none" font-family="geogebra-sans-serif, sans-serif" font-size="24px" font-style="normal" font-weight="normal" text-decoration="normal" x="211" y="133" text-anchor="start" dominant-baseline="alphabetic" fill-opacity="1">Download SVG</text><path fill="rgb(255,255,255)" stroke="none" paint-order="stroke fill markers" fill-rule="evenodd" d=" M 212 30 L 722 30 C 724.2091389993232 30 726 31.790861000676827 726 34 L 726 75 C 726 77.20913899932317 724.2091389993232 79 722 79 L 212 79 C 209.7908610006768 79 208 77.20913899932317 208 75 L 208 34 C 208 31.790861000676827 209.7908610006768 30 212 30 Z" fill-opacity="1"/><path fill="none" stroke="rgb(180,179,186)" paint-order="fill stroke markers" d=" M 212 30 L 722 30 C 724.2091389993232 30 726 31.790861000676827 726 34 L 726 75 C 726 77.20913899932317 724.2091389993232 79 722 79 L 212 79 C 209.7908610006768 79 208 77.20913899932317 208 75 L 208 34 C 208 31.790861000676827 209.7908610006768 30 212 30 Z" stroke-opacity="1" stroke-linecap="round" stroke-linejoin="round" stroke-miterlimit="10"/><text fill="rgb(0,0,0)" stroke="none" font-family="geogebra-sans-serif, sans-serif" font-size="32px" font-style="normal" font-weight="normal" text-decoration="normal" x="210" y="66" text-anchor="start" dominant-baseline="alphabetic" fill-opacity="1">\frac{d \mathcal{L}}{d \boldsymbol{p</text><text fill="rgb(0,0,0)" stroke="none" font-family="geogebra-sans-serif, sans-serif" font-size="32px" font-style="normal" font-weight="normal" text-decoration="normal" x="30" y="66" text-anchor="start" dominant-baseline="alphabetic" fill-opacity="1">Enter LaTeX</text></g></g></g></g></svg>